<?xml version="1.0" encoding="UTF-8" standalone="no"?>
<!DOCTYPE svg PUBLIC "-//W3C//DTD SVG 1.1//EN" "http://www.w3.org/Graphics/SVG/1.1/DTD/svg11.dtd">
<svg version="1.1" xmlns="http://www.w3.org/2000/svg" xmlns:xlink="http://www.w3.org/1999/xlink" preserveAspectRatio="xMidYMid meet" viewBox="0 0 640 640" width="640" height="640"><defs><path d="M320.24 0C181.49 0 89 23.12 89 23.12C89 28.23 89 53.83 89 99.89C89 295.95 89 404.88 89 426.66C89 462.84 93.4 491.03 135.26 518.37C156.34 532.18 320.24 639.15 320.24 639.15C320.24 639.15 484.14 532.18 505.22 518.37C547.08 491.03 551.48 462.84 551.48 426.66C551.48 404.88 551.48 295.95 551.48 99.89C551.48 53.83 551.48 28.23 551.48 23.12C551.48 23.12 458.99 0 320.24 0" id="iY7uzti9y"></path><path d="M531.27 470.44C525.55 483.95 514.88 495.5 497.65 506.78C479.41 518.67 352.76 601.34 320.23 622.58C287.71 601.34 161.09 518.67 142.85 506.78C125.62 495.5 114.92 483.95 109.2 470.44C103.96 458 102.86 443.93 102.86 426.67C102.86 393.7 102.86 129.93 102.86 96.96C133.57 90.92 213.13 77.69 320.23 77.69C427.37 77.69 506.89 90.92 537.6 96.96C537.6 118.94 537.6 228.85 537.6 426.67C536.89 447.55 534.78 462.14 531.27 470.44Z" id="aspSYrKjs"></path><path d="M232.37 445.16L366.98 445.16L408.1 409.92L408.1 309.29L366.98 274.05L343.35 274.05L343.35 301.82L356.73 301.82L380.37 322.06L380.37 397.15L356.73 417.42L283.25 417.42L283.25 301.82L297.12 301.82L297.12 274.05L232.37 274.05L232.37 301.82L255.49 301.82L255.49 417.42L232.37 417.42L232.37 445.16Z" id="gejN1y9lL"></path><path d="M334.11 408.17L334.11 250.93L435.84 250.93L435.84 223.19L334.11 223.19C334.11 216.65 334.11 213.02 334.11 212.29C351.82 206.48 364.59 189.83 364.59 170.2C364.59 145.7 344.71 125.85 320.24 125.85C295.77 125.85 275.92 145.7 275.92 170.2C275.92 189.83 288.69 206.48 306.37 212.29C306.37 213.02 306.37 216.65 306.37 223.19L204.64 223.19L204.64 250.93L306.37 250.93L306.37 408.17L334.11 408.17ZM320.24 153.13C329.65 153.13 337.31 160.8 337.31 170.2C337.31 179.58 329.65 187.24 320.24 187.24C310.83 187.24 303.17 179.58 303.17 170.2C303.17 160.8 310.83 153.13 320.24 153.13" id="a4yINspTA"></path><path d="M449.73 418.08C449.73 431.3 446.3 437.12 433.99 445.14C425.94 450.37 362.64 491.17 334.13 509.56C334.13 505.89 334.13 487.5 334.13 454.41L306.36 454.41C306.36 487.5 306.36 505.89 306.36 509.56C277.85 491.17 214.55 450.37 206.47 445.14C194.15 437.12 190.76 431.3 190.76 418.08C190.76 415.55 190.76 402.91 190.76 380.16L162.99 380.16C162.99 408.18 162.99 423.76 162.99 426.87C162.99 439.54 165.09 451.37 183.03 462.95C200.97 474.52 320.23 551.53 320.23 551.53C320.23 551.53 439.52 474.52 457.46 462.95C475.4 451.37 477.47 439.54 477.47 426.87C477.47 423.76 477.47 408.18 477.47 380.16L449.73 380.16C449.73 402.91 449.73 415.55 449.73 418.08Z" id="a2ZawwBMHJ"></path><path d="M172.28 61.49C172.28 45.04 172.28 35.91 172.28 34.08C180.52 33.04 188.76 32.07 197.04 31.23C197.04 31.83 197.04 36.56 197.04 37.15C191.41 37.73 185.82 38.35 180.23 39.02C180.23 39.54 180.23 43.65 180.23 44.16C184.24 43.71 188.21 43.23 192.22 42.81C192.22 43.27 192.22 46.97 192.22 47.43C188.21 47.85 184.24 48.3 180.23 48.79C180.23 49.33 180.23 53.7 180.23 54.25C185.82 53.6 191.41 52.96 197.04 52.38C197.04 53 197.04 58.02 197.04 58.65C188.76 59.49 180.52 60.46 172.28 61.49" id="e10aEmyRHR"></path><path d="M228.33 56.67C222.42 57.13 217.37 55.8 213.36 53.6C214.43 51.92 215.5 50.21 216.57 48.53C220.38 50.47 224.68 51.53 228.49 51.24C232.6 50.92 234.25 49.4 234.25 47.78C234.25 43.16 214.72 47.49 214.72 37.54C214.72 32.59 220.22 28.1 228.37 27.45C234.25 27 238.58 28.58 242.01 30.94C240.78 32.46 239.55 33.95 238.32 35.47C235.44 33.69 231.66 32.62 228.17 32.88C224.52 33.17 222.35 34.59 222.35 36.24C222.35 40.64 242.07 36.83 242.07 46.59C242.07 51.92 236.16 56.06 228.33 56.67" id="b399AXET8n"></path><path d="M274.17 31.8C274.17 44.56 274.17 51.65 274.17 53.07C271.49 53.17 268.81 53.3 266.12 53.43C266.12 51.29 266.12 34.25 266.12 32.12C262.76 32.28 259.37 32.48 256 32.64C256 32.03 256 27.14 256 26.53C265.41 26.01 274.85 25.59 284.26 25.3C284.26 25.91 284.26 30.83 284.26 31.44C280.9 31.54 277.54 31.67 274.17 31.8" id="h2VyDqjLw1"></path><path d="M293.71 52.47C293.71 48.94 293.71 46.98 293.71 46.59C295.65 46.56 297.62 46.49 299.56 46.46C299.56 47.05 299.56 51.75 299.56 52.34C297.62 52.38 295.65 52.44 293.71 52.47" id="ai3Hcek6Y"></path><path d="M335.86 52.27C335.86 37.84 335.86 29.82 335.86 28.22C338.38 28.25 339.51 26.73 339.51 24.92C340.77 24.92 342 24.96 343.23 24.99C343.23 27.73 343.23 49.66 343.23 52.4C340.77 52.34 338.31 52.3 335.86 52.27" id="b5GyjrOhOw"></path><path d="M373.57 54.26C368.59 54.04 364.74 52.52 361.48 49.96C362.58 48.54 363.64 47.12 364.71 45.73C367.2 47.54 370.24 48.67 373.11 48.83C377.9 49.03 380.03 46.34 380.03 42.4C380.03 42.24 380.03 40.97 380.03 40.82C377.96 42.53 375.54 43.56 372.18 43.43C365.45 43.14 361.48 39.62 361.48 34.9C361.48 34.84 361.48 34.4 361.48 34.35C361.48 29.05 366.39 24.72 373.99 25.07C381.91 25.43 387.21 30.76 387.21 38.46C387.21 38.77 387.21 41.31 387.21 41.62C387.21 49.38 381.97 54.65 373.57 54.26M373.89 30.73C370.37 30.57 368.3 32.12 368.3 34.58C368.3 34.62 368.3 35.01 368.3 35.06C368.3 37.49 370.14 39.2 373.73 39.36C376.51 39.49 378.42 38.65 380 37.36C380 37.28 380 36.92 380 36.26C378.58 32.7 376.54 30.86 373.89 30.73Z" id="e121xCAgv"></path><path d="M416.19 56.96C411.22 56.54 407.4 54.85 404.14 52.2C405.24 50.81 406.3 49.46 407.37 48.07C409.83 49.97 412.87 51.27 415.74 51.49C420.53 51.88 422.66 49.26 422.66 45.32C422.66 45.16 422.66 43.89 422.66 43.73C420.62 45.38 418.2 46.32 414.8 46.06C408.11 45.51 404.14 41.89 404.14 37.14C404.14 37.09 404.14 36.67 404.14 36.62C404.14 31.29 409.05 27.15 416.62 27.76C424.5 28.41 429.8 33.94 429.8 41.63C429.8 41.95 429.8 44.48 429.8 44.8C429.8 52.56 424.6 57.63 416.19 56.96M416.55 33.42C412.99 33.16 410.93 34.58 410.93 37.08C410.93 37.12 410.93 37.51 410.93 37.56C410.93 39.98 412.8 41.76 416.36 42.05C419.14 42.28 421.08 41.5 422.63 40.28C422.63 40.2 422.63 39.84 422.63 39.18C421.21 35.55 419.18 33.64 416.55 33.42Z" id="e2jdjn0GJD"></path><path d="M464.36 54.6C464.36 58.42 464.36 60.55 464.36 60.97C461.96 60.65 459.6 60.39 457.21 60.1C457.21 59.46 457.21 54.4 457.21 53.76C452.27 53.18 447.32 52.63 442.41 52.15C442.41 51.67 442.41 47.87 442.41 47.39C447.48 42.48 452.56 37.6 457.63 32.75C459.86 33.01 462.13 33.27 464.36 33.56C464.36 35.14 464.36 47.81 464.36 49.4C465.81 49.56 467.23 49.75 468.72 49.92C468.72 50.44 468.72 54.63 468.72 55.15C467.23 54.96 465.81 54.8 464.36 54.6M449.45 47.65C452.04 47.94 454.63 48.23 457.21 48.53C457.21 47.96 457.21 45.14 457.21 40.05C453.76 43.42 451.18 45.95 449.45 47.65Z" id="kySBtJsh"></path></defs><g><g><g><use xlink:href="#iY7uzti9y" opacity="1" fill="#a2acb4" fill-opacity="1"></use><g><use xlink:href="#iY7uzti9y" opacity="1" fill-opacity="0" stroke="#000000" stroke-width="1" stroke-opacity="0"></use></g></g><g><use xlink:href="#aspSYrKjs" opacity="1" fill="#2a0d54" fill-opacity="1"></use><g><use xlink:href="#aspSYrKjs" opacity="1" fill-opacity="0" stroke="#000000" stroke-width="1" stroke-opacity="0"></use></g></g><g><use xlink:href="#gejN1y9lL" opacity="1" fill="#ffffff" fill-opacity="1"></use><g><use xlink:href="#gejN1y9lL" opacity="1" fill-opacity="0" stroke="#000000" stroke-width="1" stroke-opacity="0"></use></g></g><g><use xlink:href="#a4yINspTA" opacity="1" fill="#ffffff" fill-opacity="1"></use><g><use xlink:href="#a4yINspTA" opacity="1" fill-opacity="0" stroke="#000000" stroke-width="1" stroke-opacity="0"></use></g></g><g><use xlink:href="#a2ZawwBMHJ" opacity="1" fill="#ffffff" fill-opacity="1"></use><g><use xlink:href="#a2ZawwBMHJ" opacity="1" fill-opacity="0" stroke="#000000" stroke-width="1" stroke-opacity="0"></use></g></g><g><use xlink:href="#e10aEmyRHR" opacity="1" fill="#2a0d54" fill-opacity="1"></use><g><use xlink:href="#e10aEmyRHR" opacity="1" fill-opacity="0" stroke="#000000" stroke-width="1" stroke-opacity="0"></use></g></g><g><use xlink:href="#b399AXET8n" opacity="1" fill="#2a0d54" fill-opacity="1"></use><g><use xlink:href="#b399AXET8n" opacity="1" fill-opacity="0" stroke="#000000" stroke-width="1" stroke-opacity="0"></use></g></g><g><use xlink:href="#h2VyDqjLw1" opacity="1" fill="#2a0d54" fill-opacity="1"></use><g><use xlink:href="#h2VyDqjLw1" opacity="1" fill-opacity="0" stroke="#000000" stroke-width="1" stroke-opacity="0"></use></g></g><g><use xlink:href="#ai3Hcek6Y" opacity="1" fill="#2a0d54" fill-opacity="1"></use><g><use xlink:href="#ai3Hcek6Y" opacity="1" fill-opacity="0" stroke="#000000" stroke-width="1" stroke-opacity="0"></use></g></g><g><use xlink:href="#b5GyjrOhOw" opacity="1" fill="#2a0d54" fill-opacity="1"></use><g><use xlink:href="#b5GyjrOhOw" opacity="1" fill-opacity="0" stroke="#000000" stroke-width="1" stroke-opacity="0"></use></g></g><g><use xlink:href="#e121xCAgv" opacity="1" fill="#2a0d54" fill-opacity="1"></use><g><use xlink:href="#e121xCAgv" opacity="1" fill-opacity="0" stroke="#000000" stroke-width="1" stroke-opacity="0"></use></g></g><g><use xlink:href="#e2jdjn0GJD" opacity="1" fill="#2a0d54" fill-opacity="1"></use><g><use xlink:href="#e2jdjn0GJD" opacity="1" fill-opacity="0" stroke="#000000" stroke-width="1" stroke-opacity="0"></use></g></g><g><use xlink:href="#kySBtJsh" opacity="1" fill="#2a0d54" fill-opacity="1"></use><g><use xlink:href="#kySBtJsh" opacity="1" fill-opacity="0" stroke="#000000" stroke-width="1" stroke-opacity="0"></use></g></g></g></g></svg>