<?xml version="1.0" encoding="utf-8"?>
<!-- Generator: Adobe Illustrator 19.2.1, SVG Export Plug-In . SVG Version: 6.00 Build 0)  -->
<svg version="1.1" id="layer" xmlns="http://www.w3.org/2000/svg" xmlns:xlink="http://www.w3.org/1999/xlink" x="0px" y="0px"
	 viewBox="0 0 652 652" style="enable-background:new 0 0 652 652;" xml:space="preserve">
<style type="text/css">
	.st0{fill:#C90527;}
	.st1{fill:#9C9E9F;}
	.st2{fill:#D1D1D1;}
</style>
<g>
	<path d="M505.5,183.5c0,0,6.5-18,6.5-37.4s-6.9-35.6-6.9-35.6h-10.9c0,0-6.9,15-6.9,34.5c0,19.4,6.5,36.9,6.5,36.9L505.5,183.5
		L505.5,183.5z M416.1,110.5v69.3h7c0,0,8.9-25.8,11.4-43.5c2.5-17.8,1.9-25.8,1.9-25.8S416.1,110.5,416.1,110.5z"/>
	<path d="M546.3,209.7V90.4h17.1l22.9,70.4V91h16.5v127.4l-20.3-3.1l-19.7-76.7v73.4L546.3,209.7L546.3,209.7z M468.3,144.9
		c0-30.4,10.8-53.9,10.8-53.9h41.2c0,0,10.8,26.9,10.8,57.3S518.4,206,518.4,206l-39.6-6.3C478.8,199.7,468.3,175.2,468.3,144.9
		L468.3,144.9z M397.7,199.3V91h59c0,0,0.6,23.5-5.1,52.7c-6.4,32.6-17.8,55.6-17.8,55.6H397.7z M321,173.8V90.4h15.9l24.6,60.2V91
		H378v108.9h-21.6l-20.2-61.3V184L321,173.8L321,173.8z M300,134v19.5h-29.8v27l33.5,0L278,199.6h-26.1V91h50.1v18.9h-31.7V134H300z
		 M214.4,185v-20.1L182,136.8V91h48.9v43l-16.5-13.8v-9.7h-16.5v16l32.4,28.1v45.3H182v-40.2l15.2,13.8v11.3L214.4,185z
		 M144.5,183.6v-15.8l-36.2-31.5V91H161v45.8l-16.5-13.8v-12.6h-19.7v16.6l36.8,30.4v41.6l-54,8.6v-47.3l17.1,14.3v13.5L144.5,183.6
		L144.5,183.6z M160.9,218.3h119.8l0,0l0,0l38.2-28l39.5,28h119.2l127.3,19.5L319.3,544.1L35.5,238.9L160.9,218.3z M84.5,134.6V154
		H56v43.3l31.7-4v17.8l-50.1,8.6V91h50.8v19.5H56v24.1C56,134.6,84.5,134.6,84.5,134.6z M18,70.8v175.9l301.5,324.1l13.2-14.5
		l288-311.9l1.4-1.5v-172L18,70.8L18,70.8z"/>
	<path class="st0" d="M318.9,509.3c0,0-20.4-32.3-34.9-59.6s-24.7-47.7-24.7-47.7l-19.6-7.7l-20.4,6l-11.9-11.1l3.4-14.5l-13.6,2.5
		L83.6,255.6l50.2-9.3l119.6,58.8l10.2-7.7l19.6,8.5l8.5-16.2l-103.8-45.1h111.5l19.6-16.2h0.2l19.6,16.2h111.5l-103.8,45.1
		l8.5,16.2l19.6-8.5l10.2,7.7l115.2-59l53.6,8.9L440.8,377.4l-13.6-2.6l3.4,14.5l-11.9,11.1l-20.4-6l-19.6,7.7
		c0,0-10.2,20.4-24.7,47.7c-14.5,27.2-34.9,59.6-34.9,59.6L318.9,509.3L318.9,509.3z M577.9,246.2l-101-15.2v0l-0.2,0H348.1
		l-29.1-20.4l-29.1,20.4H162.2l-1.3,0.2v0l-98.8,17.4L318.9,525l0.2,0.3C319.2,525.2,577.9,246.2,577.9,246.2z"/>
	<path class="st1" d="M162.2,231.1h127.6l29.1-20.4l-28.9,19.7l-9.3-12.1l0,0H160.9v13L162.2,231.1z M348.1,231.1l-0.5-1.5l9.4-11.8
		l0.2,0.5h1.3l-39.5-28v20.3L348.1,231.1z"/>
	<path class="st1" d="M577.9,246.2l-258.7,279l-0.2-0.3v18.7L35.5,238.9l283.8,305.1l285.6-306.2l-127.3-19.5h-0.8v12.8L577.9,246.2
		z"/>
	<path d="M335.8,470.1c-4.8-3.9-10.7-6-16.9-5.9c-8,0-14,3-17.2,5.1c-4.8-9.5-9.8-20.3-13.5-30.6c-12.8-35.7-14.5-59.6-14.5-59.6
		l-8.5,11.1l-26.4-6.8l-13.6,3.4l-6.8-6c0,0,6-20.4,18.7-38.3c12.8-17.9,27.2-33.2,27.2-33.2l24.7,12.8c0,0,5.1-11.1,10.2-20.4
		c5.1-9.4,9.4-17.9,9.4-17.9l-79.1-30.2h67.2l5.1,8.1l17-16.3h0.2l17,16.3v0l5.1-8.1h67.2l-79.1,30.2c0,0,4.2,8.5,9.4,17.9
		c5.1,9.4,10.2,20.4,10.2,20.4l24.7-12.8c0,0,14.5,15.3,27.2,33.2c12.4,17.4,18.4,37.2,18.7,38.2c0,0,0,0,0,0.1l-6.8,6l-13.6-3.4
		l-26.4,6.8l-8.5-11.1c0,0-1.7,23.8-14.5,59.6C345.9,449.3,340.8,460.4,335.8,470.1L335.8,470.1z M318.9,499.9
		c0,0-6.4-10.2-13.9-24.4c2.3-1.7,6.5-3.7,13.9-3.7c6.7,0,11.3,1.7,14.2,3.4c-7.5,14.3-14,24.6-14,24.6S318.9,499.9,318.9,499.9z
		 M234.7,329.4l-0.6,0.8L234.7,329.4z M204.1,363.8L102,260l13.9-2.4l0,0l18.4-3.1l114.8,57.3l-2,2.3c-0.4,0.5-0.8,1-1.3,1.5l-0.8,1
		c-0.5,0.6-1.1,1.3-1.6,1.9l-0.6,0.7c-0.6,0.7-1.2,1.4-1.8,2.2l-0.5,0.6l-2,2.4c-0.2,0.2-0.3,0.4-0.4,0.6l-0.4,0.5l-108.7-59.1
		l-0.2-0.1l102.1,68l-2.2,3.1c-5.2,7.5-9.7,15.5-13.3,23.9L204.1,363.8L204.1,363.8z M502.4,254.7l33.7,5.3L434,363.8l-11.4-2.5
		c-3.2-7.4-7.1-14.5-11.5-21.3c-0.6-0.9-1.2-1.7-1.8-2.6l-2.2-3.1l102.1-68l-108.8,59.2c-4.2-5.3-8.3-10.1-11.4-13.7L502.4,254.7
		L502.4,254.7z M378.7,402.1l19.6-7.7l20.4,6l11.9-11.1l-3.4-14.5l13.6,2.5L553.5,255l-53.7-8.9l-115.3,59l-10.2-7.7l-19.6,8.5
		l-8.5-16.2l103.8-45.1H338.7l-19.6-16.2h-0.2l-19.6,16.2H187.9l103.8,45.1l-8.5,16.2l-19.6-8.5l-10.2,7.7l-119.6-58.8l-50.2,9.3
		l113.6,121.8l13.6-2.5l-3.4,14.5l11.9,11.1l20.4-6l19.6,7.7c0,0,10.2,20.4,24.7,47.6c14.5,27.2,34.9,59.6,34.9,59.6h0.2
		c0,0,20.4-32.3,34.9-59.6C368.5,422.5,378.7,402.1,378.7,402.1z"/>
	<path class="st2" d="M316.5,418.9c-12.9-1.9-19.8-17.9-21.1-21.3l2-8.7c3.1,4.7,9.4,11.8,19.1,12.9V418.9z M321.6,401.8
		c8.6-1,15.5-6.6,19.8-11l2.4,10.3c-3.8,5.9-11.8,16.3-22.2,17.8V401.8z M338.5,417.4c6.8-7.7,11.9-17.9,11.9-17.9l-5.1-23l11.1,4.3
		l1.7-21.3l14.5,18.7l23.8-6l12.8,4.3l6.7-6.1c2.3,5.8,3.6,9.8,3.7,10.3c-0.3-1-6.3-20.8-18.7-38.2c-12.8-17.9-27.2-33.2-27.2-33.2
		s2.5,2.7,6.4,7.1l-33.5,17.6l-9.7-14.5l-17.9,24.9v-99l-17,16.3l-5.1-8.1h-67.2l79.1,30.2c0,0-4.2,8.5-9.4,17.9
		c-5.1,9.4-10.2,20.4-10.2,20.4l-24.7-12.8c0,0-14.5,15.3-27.2,33.2c-12.8,17.9-18.7,38.3-18.7,38.3l6.8,6l13.6-3.4l26.4,6.8
		l8.5-11.1c0,0,1.7,23.8,14.5,59.6c3.7,10.3,8.6,21.1,13.5,30.6c3.1-2,9.2-5.1,17.2-5.1V428C324.4,426.3,333.9,422.6,338.5,417.4
		L338.5,417.4z M318.9,494l-0.2-18.9l0.2,0v-3.1c-7.4,0-11.6,2-13.9,3.6c4.4,8.3,9,16.4,13.9,24.4C318.9,499.9,318.9,494,318.9,494z
		"/>
	<path class="st2" d="M408.4,253.6h-67.2l-5.1,8.1l0,0l-6.8,22.1L408.4,253.6z"/>
	<path d="M297.4,388.9l-2,8.7c1.3,3.4,8.2,19.4,21.1,21.3v-17.1C306.8,400.7,300.5,393.6,297.4,388.9 M343.8,401.1l-2.4-10.3
		c-4.3,4.5-11.2,10.1-19.8,11v17.1C332,417.3,340,407,343.8,401.1"/>
	<path class="st1" d="M336.8,319.5l9.7,14.5l33.5-17.6c-3.9-4.4-6.4-7.1-6.4-7.1l-24.7,12.8c0,0-5.1-11.1-10.2-20.4
		c-3.2-5.9-6.3-11.9-9.4-17.9l6.8-22.1v0l-17-16.3h-0.2v99C318.9,344.4,336.8,319.5,336.8,319.5z M318.9,471.9v3.1
		c0.5,0,2,0,4.9,0.7c3.7,0.9,4.9,1.9,4.9,1.9s-1.1,2.1-2.6,4.9c-1.5,2.8-7.2,11.5-7.2,11.5v6h0.2c0,0,6.5-10.4,14-24.6
		C330.3,473.6,325.7,471.9,318.9,471.9 M372.7,390.2l26.4-6.8l13.6,3.4l6.8-6l0-0.1c-1.1-3.5-2.3-6.9-3.7-10.3l-6.7,6.1l-12.7-4.2
		l-23.8,5.9l-14.5-18.7l-1.7,21.3l-11.1-4.2l5.1,23c0,0-5.1,10.2-11.9,17.9c-4.7,5.2-14.1,8.9-19.6,10.6v36.1
		c8.1,0,13.8,3.4,16.9,5.9c5-9.8,10.1-20.8,13.9-31.5c12.8-35.7,14.5-59.6,14.5-59.6L372.7,390.2L372.7,390.2z"/>
	<path d="M318.9,494c0,0,5.7-8.7,7.2-11.5c1.5-2.8,2.6-4.9,2.6-4.9s-1.2-1-4.9-1.9c-1.6-0.4-3.2-0.7-4.9-0.7c-0.1,0-0.2,0-0.2,0
		L318.9,494L318.9,494z"/>
	<path class="st2" d="M243.5,318.5l-0.6,0.7L243.5,318.5 M245.9,315.6l-0.8,1L245.9,315.6 M238.6,324.5l-0.4,0.6
		C238.3,324.8,238.4,324.7,238.6,324.5 M249.1,311.8c-0.6,0.7-1.3,1.5-2,2.3L249.1,311.8 M231,334.4l-102.1-68.1l0.2,0.1l-13.1-8.8
		l-14,2.4l102.1,103.8l11.4-2.5C219.6,351.7,224.8,342.7,231,334.4 M509.2,266.3l-96.5,76.1l0,0c4.2,6.6,7.5,13.2,9.9,18.8l11.4,2.5
		L536.1,260l-33.7-5.3l-113.4,57.1c3.2,3.6,7.2,8.4,11.4,13.7C400.3,325.5,509.2,266.3,509.2,266.3z"/>
	<path class="st1" d="M234.1,330.2l0.6-0.8L234.1,330.2 M237.7,325.5l0.4-0.5l0.4-0.6c0.7-0.8,1.3-1.6,2-2.4
		c0.2-0.2,0.3-0.4,0.5-0.6l1.8-2.2l0.6-0.7l1.6-1.9l0.8-1c0.4-0.5,0.9-1,1.3-1.5l2-2.3l-114.8-57.3l-18.4,3.1l0.1,0l13.1,8.8
		L237.7,325.5z M509.2,266.3l-102.1,68c0.7,1,1.5,2,2.2,3.1c1.2,1.6,2.3,3.3,3.4,5l0,0L509.2,266.3L509.2,266.3z"/>
	<path class="st2" d="M318.9,210.6v-20.3l-38.2,28l0,0l9.3,12.1L318.9,210.6z M357,217.8l-9.4,11.8l0.5,1.5h128.5l0.2,0v-12.8H357.2
		L357,217.8z M318.9,543.7V525L62.2,248.8l98.8-17.4v-13L35.5,238.9L318.9,543.7z"/>
	<path class="st0" d="M88.3,110.5V91H37.6v128.7l50.1-8.6v-17.8l-31.7,4V154h28.5v-19.5H56v-24.1L88.3,110.5z M107.7,160.3v47.3
		l54-8.6v-41.6l-36.8-30.4v-16.6h19.7v12.6l16.5,13.8V91h-52.7v45.3l36.2,31.5v15.8l-19.7,4.6v-13.5L107.7,160.3z M182,159.8v40.2
		h48.2v-45.3l-32.4-28.1v-16h16.5v9.7l16.5,13.8V91H182v45.8l32.4,28.1V185l-17.1-0.2v-11.3L182,159.8z M301.9,109.9V91h-50.1v108.6
		H278l25.8-19.2l-33.5,0v-27H300V134h-29.8v-24.1L301.9,109.9z M356.5,199.9H378V91h-16.5v59.6l-24.6-60.1H321v83.4l15.2,10.2v-45.4
		L356.5,199.9z M582.5,215.3l20.3,3.1V91h-16.5v69.8l-22.9-70.4h-17.1v119.3l16.5,2.3v-73.4L582.5,215.3z M434.5,136.3
		c-2.5,17.8-11.4,43.5-11.4,43.5h-7v-69.3h20.4C436.4,110.5,437,118.5,434.5,136.3 M456.7,91h-59v108.3h36.2
		c0,0,11.4-22.9,17.8-55.6C457.4,114.5,456.7,91,456.7,91 M494.2,110.5h10.9c0,0,6.9,16.2,6.9,35.6c0,19.4-6.5,37.4-6.5,37.4
		l-11.7-1.6c0,0-6.5-17.5-6.5-36.9C487.3,125.5,494.2,110.5,494.2,110.5z M518.4,206c0,0,12.7-27.3,12.7-57.7S520.3,91,520.3,91H479
		c0,0-10.8,23.5-10.8,53.9c0,30.4,10.5,54.8,10.5,54.8S518.4,206,518.4,206z"/>
</g>
</svg>
