<svg xmlns="http://www.w3.org/2000/svg" viewBox="0 0 113.51 93.67"><g id="Layer_2" data-name="Layer 2"><g id="Layer_1-2" data-name="Layer 1"><path d="M95.41,90.58a1.61,1.61,0,0,1,.48,1.17,1.59,1.59,0,0,1-.48,1.17,1.63,1.63,0,0,1-2.33,0,1.59,1.59,0,0,1-.48-1.17,1.61,1.61,0,0,1,.48-1.17,1.65,1.65,0,0,1,2.33,0Zm.19-.18a1.92,1.92,0,0,0-2.71,0,1.84,1.84,0,0,0-.56,1.35,1.88,1.88,0,0,0,.56,1.36,1.84,1.84,0,0,0,1.35.56,1.91,1.91,0,0,0,1.92-1.92A1.84,1.84,0,0,0,95.6,90.4Zm-1.07,1.26a1,1,0,0,1-.35,0h-.34V91h.32a1,1,0,0,1,.44.07.32.32,0,0,1,.14.31A.33.33,0,0,1,94.53,91.66Zm-1.06,1.13h.37V92h.29a.94.94,0,0,1,.41.06c.14.08.2.24.2.49v.23a0,0,0,0,0,0,0v0h.35l0,0a1,1,0,0,1,0-.11.92.92,0,0,1,0-.16v-.15A.65.65,0,0,0,95,92a.5.5,0,0,0-.36-.2,1,1,0,0,0,.3-.1.46.46,0,0,0,.21-.42.52.52,0,0,0-.33-.53,1.61,1.61,0,0,0-.57-.07h-.74Z" style="fill:#fff"/><polygon points="30.43 0 95.2 0.01 95.2 22.53 113.51 17.27 108.88 36.44 95.2 37.99 95.2 38.29 101.21 45.12 95.2 45.8 95.2 87.77 81.94 87.77 51.84 87.77 30.43 87.76 30.43 58.06 0 61.31 28.59 51.42 25.32 47.74 30.43 46.25 30.43 0" style="fill:#231f20"/><polygon points="30.43 0 95.2 0.01 95.2 22.53 113.51 17.27 108.88 36.44 95.2 37.99 95.2 38.29 101.21 45.12 95.2 45.8 95.2 87.77 81.94 87.77 51.84 87.77 30.43 87.76 30.43 58.06 0 61.31 28.59 51.42 25.32 47.74 30.43 46.25 30.43 0" style="fill:#231f20"/><polygon points="34.37 45.1 34.38 23.31 91.27 23.31 91.27 23.66 74.32 28.53 77.9 32.49 73.52 33.74 72.13 32.24 66.69 30.05 64.08 31.85 60.87 30.77 57.06 33.88 54.04 33.58 51.16 36.52 48.5 35.97 44.46 40.34 44.76 42.07 34.37 45.1" style="fill:#009fad"/><path d="M38.27,18.75V14.27h3.36l2-1.88v-6L41.71,4.55H34.38v14.2Zm0-7.64V7.7h1.45v3.41Z" style="fill:#fff"/><path d="M47.48,18.75h5.31l1.94-1.86V6.42L52.79,4.55H47.48L45.54,6.42V16.89Zm1.93-3.16V7.68h1.43v7.91Z" style="fill:#fff"/><polygon points="58.04 18.75 62.42 18.75 63.36 11.21 64.3 18.75 68.68 18.75 70.54 4.55 66.99 4.55 66.25 11.8 65.38 4.55 61.4 4.55 60.42 11.51 59.71 4.55 56.16 4.55 58.04 18.75" style="fill:#fff"/><polygon points="80.09 18.75 80.09 15.2 75.97 15.2 75.97 13.23 79.78 13.23 79.78 9.81 75.97 9.81 75.97 7.96 80.13 7.96 80.13 4.55 72.08 4.55 72.08 18.75 80.09 18.75" style="fill:#fff"/><path d="M85.91,18.75V13h1.53v5.72h3.87V13l-1.57-1.48,1.59-1.56V6.42l-2-1.87H82v14.2Zm0-8.76V7.53h1.53V10Z" style="fill:#fff"/><polygon points="38.31 57.22 38.31 83.83 34.38 83.83 34.37 57.64 38.31 57.22" style="fill:#fff"/><polygon points="45.88 56.41 45.88 83.83 41.94 83.83 41.94 56.83 45.88 56.41" style="fill:#fff"/><polygon points="52.06 83.83 49.51 83.83 49.51 77.03 52.06 83.83" style="fill:#fff"/><polygon points="49.51 73.08 49.5 60.29 49.49 51.38 52.23 59.66 54.35 60.27 49.51 73.08" style="fill:#fff"/><polygon points="76.14 56.53 76.14 72.94 72.81 69 71.48 60.57 76.14 56.53" style="fill:#fff"/><polygon points="83.7 47.11 83.7 83.83 80.3 83.83 79.77 81.32 79.77 47.56 83.7 47.11" style="fill:#fff"/><polygon points="91.27 46.25 91.27 83.83 87.34 83.83 87.34 46.7 91.27 46.25" style="fill:#fff"/><polygon points="109.69 20.99 106.5 34.26 89.58 36.14 95.78 43.24 79.77 45 79.01 43.89 72.22 40.39 72.21 36.69 82.64 33.57 79.19 29.78 109.69 20.99" style="fill:#fff"/><polygon points="69.89 44.46 71.77 43.23 77.05 45.95 74.87 52.6 69.54 46.76 69.89 44.46" style="fill:#b2b8bf"/><polygon points="72.21 55.2 67.36 57.71 61.46 55.81 55.33 56.94 52.44 50.77 59.17 49.6 56.19 51.71 57.08 53.3 60.77 51.17 67.63 48.52 72.21 55.2" style="fill:#b2b8bf"/><polygon points="61.01 47.13 58.55 44.51 59.64 35.29 61.43 33.83 63.05 34.38 61.55 43.56 60.07 43.94 62.33 46.97 61.01 47.13" style="fill:#b2b8bf"/><polygon points="56.13 47.68 53.06 45.6 53.49 38.04 55.07 36.42 56.76 36.59 56.23 44.87 54.92 45.17 57.56 47.49 56.13 47.68" style="fill:#b2b8bf"/><polygon points="50.04 48.37 48.33 47.26 47.37 41.21 49.46 38.95 50.87 39.24 51.07 46.11 49.69 46.44 51.57 48.19 50.04 48.37" style="fill:#b2b8bf"/><polygon points="66.52 33.48 67.03 33.12 69.41 34.08 68.39 41.85 66.13 42.48 66.61 46.48 65.52 46.62 64.04 43.28 66.52 33.48" style="fill:#b2b8bf"/><polygon points="45.15 44.49 30.03 48.86 33.36 52.49 19.42 56.72 43.98 53.59 40.2 49.49 45.93 48.8 45.15 44.49" style="fill:#fff"/><polygon points="74.63 83.83 74.02 77.48 68.11 69.87 67.67 61.78 61.65 59.04 57.25 60.28 53.76 75.5 58.33 83.83 74.63 83.83" style="fill:#b2b8bf"/></g></g></svg>